<svg xmlns="http://www.w3.org/2000/svg" width="232" height="229" viewBox="0 0 232 229" fill="none">
    <ellipse cx="116.278" cy="114.342" rx="115.504" ry="114.342" fill="#2E2E2E"/>
    <path d="M151.08 112.779H76.0117C63.463 112.779 54.8095 124.925 62.1353 135.113C72.3364 149.3 89.0903 162.903 113.546 162.903C138.001 162.903 154.755 149.3 164.956 135.113C172.282 124.925 163.629 112.779 151.08 112.779Z" stroke="#CCCCCC" stroke-width="6.26552"/>
    <path d="M75.9453 81.3434C76.7735 77.2024 80.9145 68.9204 90.8529 68.9204C100.791 68.9204 103.276 77.2024 103.276 81.3434" stroke="#CCCCCC" stroke-width="8.70907" stroke-linecap="round"/>
    <path d="M120.688 81.3434C121.516 77.2024 125.657 68.9204 135.595 68.9204C145.534 68.9204 148.018 77.2024 148.018 81.3434" stroke="#CCCCCC" stroke-width="8.70907" stroke-linecap="round"/>
  </svg>