<svg xmlns="http://www.w3.org/2000/svg" width="217" height="215" viewBox="0 0 217 215" fill="none">
    <ellipse cx="108.942" cy="107.861" rx="107.989" ry="106.903" fill="#2E2E2E"/>
    <ellipse cx="92.9852" cy="85.7168" rx="10.4305" ry="10.3256" fill="#CCCCCC"/>
    <ellipse cx="127.102" cy="85.7168" rx="10.4305" ry="10.3256" fill="#CCCCCC"/>
    <path d="M81.75 54.0141C83.3498 50.5827 87.8294 43.8781 92.9489 44.5116C98.0684 45.1451 100.948 51.1106 101.748 54.0141" stroke="#CCCCCC" stroke-width="4.75124" stroke-linecap="round"/>
    <path d="M116.125 54.8458C117.725 51.4143 122.204 44.7098 127.324 45.3433C132.443 45.9768 135.323 51.9423 136.123 54.8458" stroke="#CCCCCC" stroke-width="4.75124" stroke-linecap="round"/>
    <path d="M128.186 143.495C128.186 154.518 119.484 163.292 108.948 163.292C98.4109 163.292 89.7094 154.518 89.7094 143.495C89.7094 132.472 98.4109 123.698 108.948 123.698C119.484 123.698 128.186 132.472 128.186 143.495Z" stroke="#CCCCCC" stroke-width="7.91873"/>
  </svg>