<svg width="24" height="24" viewBox="0 0 24 24" fill="none" xmlns="http://www.w3.org/2000/svg">
<path d="M8.376 8.802C8.376 8.934 8.4 9.066 8.448 9.198C8.508 9.318 8.538 9.444 8.538 9.576C8.538 9.708 8.49 9.822 8.394 9.918C8.31 10.002 8.202 10.044 8.07 10.044C7.938 10.044 7.83 10.002 7.746 9.918C7.662 9.822 7.596 9.708 7.548 9.576C7.512 9.444 7.482 9.312 7.458 9.18C7.446 9.036 7.44 8.916 7.44 8.82C7.44 8.208 7.536 7.68 7.728 7.236C7.932 6.78 8.208 6.402 8.556 6.102C8.904 5.802 9.324 5.58 9.816 5.436C10.308 5.292 10.842 5.22 11.418 5.22C11.694 5.22 11.982 5.238 12.282 5.274C12.582 5.31 12.864 5.376 13.128 5.472C13.98 5.76 14.598 6.18 14.982 6.732C15.366 7.272 15.558 7.992 15.558 8.892C15.558 9.372 15.414 9.78 15.126 10.116C14.838 10.452 14.502 10.734 14.118 10.962C13.986 11.034 13.818 11.124 13.614 11.232C13.41 11.34 13.206 11.46 13.002 11.592C12.81 11.712 12.63 11.838 12.462 11.97C12.294 12.102 12.18 12.234 12.12 12.366C12.072 12.462 12.042 12.558 12.03 12.654C12.018 12.738 12.012 12.834 12.012 12.942C12.012 13.338 12.024 13.734 12.048 14.13C12.084 14.526 12.114 14.922 12.138 15.318V15.354C12.138 15.486 12.09 15.6 11.994 15.696C11.91 15.78 11.802 15.822 11.67 15.822C11.538 15.822 11.43 15.78 11.346 15.696C11.274 15.612 11.226 15.51 11.202 15.39C11.178 15.27 11.154 15.102 11.13 14.886C11.118 14.658 11.106 14.424 11.094 14.184C11.094 13.944 11.088 13.716 11.076 13.5C11.076 13.272 11.076 13.086 11.076 12.942C11.076 12.522 11.16 12.168 11.328 11.88C11.508 11.592 11.73 11.346 11.994 11.142C12.258 10.938 12.54 10.758 12.84 10.602C13.152 10.446 13.44 10.29 13.704 10.134C13.968 9.966 14.184 9.786 14.352 9.594C14.532 9.402 14.622 9.162 14.622 8.874C14.622 8.19 14.478 7.644 14.19 7.236C13.902 6.816 13.422 6.516 12.75 6.336C12.534 6.276 12.312 6.234 12.084 6.21C11.868 6.174 11.646 6.156 11.418 6.156C10.974 6.156 10.566 6.204 10.194 6.3C9.822 6.396 9.498 6.552 9.222 6.768C8.958 6.972 8.748 7.242 8.592 7.578C8.448 7.914 8.376 8.322 8.376 8.802ZM11.364 19.008C11.232 19.02 11.112 18.972 11.004 18.864C10.908 18.756 10.86 18.636 10.86 18.504C10.86 18.324 10.926 18.174 11.058 18.054C11.202 17.946 11.358 17.892 11.526 17.892C11.718 17.892 11.868 17.958 11.976 18.09C12.096 18.234 12.156 18.396 12.156 18.576C12.156 18.72 12.102 18.84 11.994 18.936C11.898 19.044 11.784 19.098 11.652 19.098C11.532 19.098 11.436 19.068 11.364 19.008Z" fill="black"/>
<circle cx="12" cy="12" r="11.5" stroke="black"/>
</svg>
