<svg xmlns="http://www.w3.org/2000/svg" width="22" height="23" viewBox="0 0 22 23" fill="none">
    <path fill-rule="evenodd" clip-rule="evenodd" d="M21.3911 3.33344C21.4822 3.47164 21.5228 3.63702 21.506 3.80167C21.4892 3.96631 21.4162 4.12013 21.2991 4.23715L12.4892 13.0461C12.3991 13.1362 12.2866 13.2007 12.1633 13.233L8.49389 14.1914C8.37259 14.223 8.24513 14.2224 8.12416 14.1895C8.00319 14.1567 7.89291 14.0927 7.80427 14.0041C7.71563 13.9155 7.65171 13.8052 7.61887 13.6842C7.58602 13.5632 7.58538 13.4358 7.61702 13.3145L8.57535 9.64598C8.60332 9.53586 8.6561 9.43359 8.72964 9.34698L17.5722 0.510189C17.7069 0.37559 17.8896 0.299988 18.0801 0.299988C18.2706 0.299988 18.4532 0.37559 18.588 0.510189L21.2991 3.22036C21.3335 3.25486 21.3644 3.29275 21.3911 3.33344ZM19.7744 3.72827L18.0801 2.0349L9.91702 10.198L9.31806 12.4913L11.6113 11.8923L19.7744 3.72827Z" fill="#6D6D6D"/>
    <path d="M16.418 18.3775C16.68 16.0056 16.7636 13.6154 16.6682 11.2295C16.6661 11.1733 16.675 11.1172 16.6943 11.0648C16.7136 11.0124 16.7428 10.9648 16.7803 10.9249L17.7233 9.92581C17.7491 9.89836 17.7818 9.87937 17.8175 9.87113C17.8532 9.86289 17.8904 9.86575 17.9246 9.87937C17.9588 9.89299 17.9886 9.91679 18.0103 9.9479C18.0321 9.97901 18.0449 10.0161 18.0472 10.0548C18.2247 12.8888 18.1573 15.7342 17.846 18.5552C17.6198 20.6083 16.0635 22.2176 14.1343 22.446C10.7853 22.839 7.40554 22.839 4.05649 22.446C2.12833 22.2176 0.571036 20.6083 0.344869 18.5552C-0.0524563 14.9563 -0.0524563 11.3205 0.344869 7.7215C0.571036 5.66847 2.12737 4.05915 4.05649 3.8307C6.59835 3.53207 9.15936 3.45972 11.7126 3.61443C11.7492 3.61721 11.7842 3.63103 11.8135 3.65424C11.8429 3.67746 11.8654 3.7091 11.8783 3.74543C11.8912 3.78175 11.894 3.82124 11.8864 3.8592C11.8788 3.89717 11.861 3.93203 11.8353 3.95965L10.8837 4.96687C10.8464 5.00621 10.8019 5.03705 10.753 5.05748C10.704 5.07791 10.6516 5.0875 10.599 5.08566C8.46843 5.00893 6.33537 5.09546 4.21654 5.34458C3.5974 5.41718 3.01944 5.7088 2.57602 6.17234C2.1326 6.63587 1.84962 7.24424 1.77279 7.89918C1.38854 11.3801 1.38854 14.8966 1.77279 18.3775C1.84962 19.0325 2.1326 19.6409 2.57602 20.1044C3.01944 20.5679 3.5974 20.8595 4.21654 20.9321C7.43174 21.3129 10.7591 21.3129 13.9752 20.9321C14.5944 20.8595 15.1723 20.5679 15.6158 20.1044C16.0592 19.6409 16.3412 19.0325 16.418 18.3775Z" fill="#6D6D6D"/>
  </svg>